<svg width="25" height="30" viewBox="0 0 25 30" fill="none" xmlns="http://www.w3.org/2000/svg">
<path d="M14 12.2597V1C14 0.587977 13.5296 0.352786 13.2 0.6L0.2 10.35C0.0740971 10.4444 0 10.5926 0 10.75V21.2545C0 21.4093 0.0717461 21.5554 0.194276 21.6501L10.7082 29.7745C10.8817 29.9086 11.1223 29.9139 11.3016 29.7877L24.2877 20.6494C24.4208 20.5557 24.5 20.4032 24.5 20.2405V9.4926C24.5 9.08195 24.0324 8.84639 23.7024 9.09083L11.3464 18.2434C11.1473 18.3909 10.8704 18.3704 10.6952 18.1952L9.39501 16.895C9.18429 16.6843 9.20352 16.3372 9.43622 16.151L13.8123 12.6501C13.931 12.5552 14 12.4116 14 12.2597Z" fill="#EA845D"/>
</svg>
