<svg width="146" height="38" viewBox="0 0 146 38" fill="none" xmlns="http://www.w3.org/2000/svg">
<rect width="146" height="38" rx="4" fill="white"/>
<path d="M19.5352 17.3008C19.5039 16.9857 19.3698 16.7409 19.1328 16.5664C18.8958 16.3919 18.5742 16.3047 18.168 16.3047C17.8919 16.3047 17.6589 16.3437 17.4688 16.4219C17.2786 16.4974 17.1328 16.6029 17.0313 16.7383C16.9323 16.8737 16.8828 17.0273 16.8828 17.1992C16.8776 17.3424 16.9076 17.4674 16.9727 17.5742C17.0404 17.681 17.1328 17.7734 17.25 17.8516C17.3672 17.9271 17.5026 17.9935 17.6562 18.0508C17.8099 18.1055 17.974 18.1523 18.1484 18.1914L18.8672 18.3633C19.2161 18.4414 19.5365 18.5456 19.8281 18.6758C20.1198 18.806 20.3724 18.9661 20.5859 19.1562C20.7995 19.3464 20.9648 19.5703 21.082 19.8281C21.2018 20.0859 21.263 20.3815 21.2656 20.7148C21.263 21.2044 21.138 21.6289 20.8906 21.9883C20.6458 22.3451 20.2917 22.6224 19.8281 22.8203C19.3672 23.0156 18.8112 23.1133 18.1602 23.1133C17.5143 23.1133 16.9518 23.0143 16.4727 22.8164C15.9961 22.6185 15.6237 22.3255 15.3555 21.9375C15.0898 21.5469 14.9505 21.0638 14.9375 20.4883H16.5742C16.5924 20.7565 16.6693 20.9805 16.8047 21.1602C16.9427 21.3372 17.1263 21.4714 17.3555 21.5625C17.5872 21.651 17.849 21.6953 18.1406 21.6953C18.4271 21.6953 18.6758 21.6536 18.8867 21.5703C19.1003 21.487 19.2656 21.3711 19.3828 21.2227C19.5 21.0742 19.5586 20.9036 19.5586 20.7109C19.5586 20.5312 19.5052 20.3802 19.3984 20.2578C19.2943 20.1354 19.1406 20.0312 18.9375 19.9453C18.737 19.8594 18.4909 19.7812 18.1992 19.7109L17.3281 19.4922C16.6536 19.3281 16.1211 19.0716 15.7305 18.7227C15.3398 18.3737 15.1458 17.9036 15.1484 17.3125C15.1458 16.8281 15.2747 16.4049 15.5352 16.043C15.7982 15.681 16.1589 15.3984 16.6172 15.1953C17.0755 14.9922 17.5964 14.8906 18.1797 14.8906C18.7734 14.8906 19.2917 14.9922 19.7344 15.1953C20.1797 15.3984 20.526 15.681 20.7734 16.043C21.0208 16.4049 21.1484 16.8242 21.1562 17.3008H19.5352ZM25.5635 17V18.25H21.9502V17H25.5635ZM22.7705 15.5625H24.4346V21.1562C24.4346 21.3099 24.458 21.4297 24.5049 21.5156C24.5518 21.599 24.6169 21.6576 24.7002 21.6914C24.7861 21.7253 24.8851 21.7422 24.9971 21.7422C25.0752 21.7422 25.1533 21.7357 25.2314 21.7227C25.3096 21.707 25.3695 21.6953 25.4111 21.6875L25.6729 22.9258C25.5895 22.9518 25.4723 22.9818 25.3213 23.0156C25.1702 23.0521 24.9867 23.0742 24.7705 23.082C24.3695 23.0977 24.0179 23.0443 23.7158 22.9219C23.4163 22.7995 23.1833 22.6094 23.0166 22.3516C22.8499 22.0937 22.7679 21.7682 22.7705 21.375V15.5625ZM28.3584 23.1133C27.9756 23.1133 27.6344 23.0469 27.335 22.9141C27.0355 22.7786 26.7985 22.5794 26.624 22.3164C26.4521 22.0508 26.3662 21.7201 26.3662 21.3242C26.3662 20.9909 26.4274 20.7109 26.5498 20.4844C26.6722 20.2578 26.8389 20.0755 27.0498 19.9375C27.2607 19.7995 27.5003 19.6953 27.7686 19.625C28.0394 19.5547 28.3232 19.5052 28.6201 19.4766C28.9691 19.4401 29.2503 19.4062 29.4639 19.375C29.6774 19.3411 29.8324 19.2917 29.9287 19.2266C30.0251 19.1615 30.0732 19.0651 30.0732 18.9375V18.9141C30.0732 18.6667 29.9951 18.4753 29.8389 18.3398C29.6852 18.2044 29.4665 18.1367 29.1826 18.1367C28.8831 18.1367 28.6449 18.2031 28.4678 18.3359C28.2907 18.4661 28.1735 18.6302 28.1162 18.8281L26.5771 18.7031C26.6553 18.3385 26.8089 18.0234 27.0381 17.7578C27.2673 17.4896 27.5628 17.2839 27.9248 17.1406C28.2894 16.9948 28.7113 16.9219 29.1904 16.9219C29.5238 16.9219 29.8428 16.9609 30.1475 17.0391C30.4548 17.1172 30.7269 17.2383 30.9639 17.4023C31.2035 17.5664 31.3923 17.7773 31.5303 18.0352C31.6683 18.2904 31.7373 18.5964 31.7373 18.9531V23H30.1592V22.168H30.1123C30.016 22.3555 29.887 22.5208 29.7256 22.6641C29.5641 22.8047 29.3701 22.9154 29.1436 22.9961C28.917 23.0742 28.6553 23.1133 28.3584 23.1133ZM28.835 21.9648C29.0798 21.9648 29.2959 21.9167 29.4834 21.8203C29.6709 21.7214 29.818 21.5885 29.9248 21.4219C30.0316 21.2552 30.085 21.0664 30.085 20.8555V20.2188C30.0329 20.2526 29.9613 20.2839 29.8701 20.3125C29.7816 20.3385 29.6813 20.3633 29.5693 20.3867C29.4574 20.4076 29.3454 20.4271 29.2334 20.4453C29.1214 20.4609 29.0199 20.4753 28.9287 20.4883C28.7334 20.5169 28.5628 20.5625 28.417 20.625C28.2712 20.6875 28.1579 20.7721 28.0771 20.8789C27.9964 20.9831 27.9561 21.1133 27.9561 21.2695C27.9561 21.4961 28.0381 21.6693 28.2021 21.7891C28.3688 21.9062 28.5798 21.9648 28.835 21.9648ZM33.0283 23V17H34.6416V18.0469H34.7041C34.8135 17.6745 34.9971 17.3932 35.2549 17.2031C35.5127 17.0104 35.8096 16.9141 36.1455 16.9141C36.2288 16.9141 36.3187 16.9193 36.415 16.9297C36.5114 16.9401 36.596 16.9544 36.6689 16.9727V18.4492C36.5908 18.4258 36.4827 18.4049 36.3447 18.3867C36.2067 18.3685 36.0804 18.3594 35.9658 18.3594C35.721 18.3594 35.5023 18.4128 35.3096 18.5195C35.1195 18.6237 34.9684 18.7695 34.8564 18.957C34.7471 19.1445 34.6924 19.3607 34.6924 19.6055V23H33.0283ZM41.0215 17V18.25H37.4082V17H41.0215ZM38.2285 15.5625H39.8926V21.1562C39.8926 21.3099 39.916 21.4297 39.9629 21.5156C40.0098 21.599 40.0749 21.6576 40.1582 21.6914C40.2441 21.7253 40.3431 21.7422 40.4551 21.7422C40.5332 21.7422 40.6113 21.7357 40.6895 21.7227C40.7676 21.707 40.8275 21.6953 40.8691 21.6875L41.1309 22.9258C41.0475 22.9518 40.9303 22.9818 40.7793 23.0156C40.6283 23.0521 40.4447 23.0742 40.2285 23.082C39.8275 23.0977 39.4759 23.0443 39.1738 22.9219C38.8743 22.7995 38.6413 22.6094 38.4746 22.3516C38.3079 22.0937 38.2259 21.7682 38.2285 21.375V15.5625ZM45.835 23L44.2021 17H45.8857L46.8154 21.0312H46.8701L47.8389 17H49.4912L50.4756 21.0078H50.5264L51.4404 17H53.1201L51.4912 23H49.7295L48.6982 19.2266H48.624L47.5928 23H45.835ZM54.0078 23V17H55.6719V23H54.0078ZM54.8438 16.2266C54.5964 16.2266 54.3841 16.1445 54.207 15.9805C54.0326 15.8138 53.9453 15.6146 53.9453 15.3828C53.9453 15.1536 54.0326 14.957 54.207 14.793C54.3841 14.6263 54.5964 14.543 54.8438 14.543C55.0911 14.543 55.3021 14.6263 55.4766 14.793C55.6536 14.957 55.7422 15.1536 55.7422 15.3828C55.7422 15.6146 55.6536 15.8138 55.4766 15.9805C55.3021 16.1445 55.0911 16.2266 54.8438 16.2266ZM60.1963 17V18.25H56.583V17H60.1963ZM57.4033 15.5625H59.0674V21.1562C59.0674 21.3099 59.0908 21.4297 59.1377 21.5156C59.1846 21.599 59.2497 21.6576 59.333 21.6914C59.4189 21.7253 59.5179 21.7422 59.6299 21.7422C59.708 21.7422 59.7861 21.7357 59.8643 21.7227C59.9424 21.707 60.0023 21.6953 60.0439 21.6875L60.3057 22.9258C60.2223 22.9518 60.1051 22.9818 59.9541 23.0156C59.8031 23.0521 59.6195 23.0742 59.4033 23.082C59.0023 23.0977 58.6507 23.0443 58.3486 22.9219C58.0492 22.7995 57.8161 22.6094 57.6494 22.3516C57.4827 22.0937 57.4007 21.7682 57.4033 21.375V15.5625ZM63.0732 19.5313V23H61.4092V15H63.0264V18.0586H63.0967C63.2321 17.7044 63.4508 17.4271 63.7529 17.2266C64.055 17.0234 64.4339 16.9219 64.8896 16.9219C65.3063 16.9219 65.6696 17.013 65.9795 17.1953C66.292 17.375 66.5342 17.6341 66.7061 17.9727C66.8805 18.3086 66.9665 18.7109 66.9639 19.1797V23H65.2998V19.4766C65.3024 19.1068 65.2087 18.819 65.0186 18.6133C64.8311 18.4076 64.568 18.3047 64.2295 18.3047C64.0029 18.3047 63.8024 18.3529 63.6279 18.4492C63.4561 18.5456 63.3206 18.6862 63.2217 18.8711C63.1253 19.0534 63.0758 19.2734 63.0732 19.5313ZM73.5303 23.1172C72.9157 23.1172 72.387 22.987 71.9443 22.7266C71.5042 22.4635 71.1657 22.099 70.9287 21.6328C70.6943 21.1667 70.5771 20.6302 70.5771 20.0234C70.5771 19.4089 70.6956 18.8698 70.9326 18.4062C71.1722 17.9401 71.512 17.5768 71.9521 17.3164C72.3923 17.0534 72.9157 16.9219 73.5225 16.9219C74.0459 16.9219 74.5042 17.0169 74.8975 17.207C75.2907 17.3971 75.6019 17.6641 75.8311 18.0078C76.0602 18.3516 76.1865 18.7552 76.21 19.2188H74.6396C74.5954 18.9193 74.4782 18.6784 74.2881 18.4961C74.1006 18.3112 73.8545 18.2187 73.5498 18.2187C73.292 18.2187 73.0667 18.2891 72.874 18.4297C72.6839 18.5677 72.5355 18.7695 72.4287 19.0352C72.3219 19.3008 72.2686 19.6224 72.2686 20C72.2686 20.3828 72.3206 20.7083 72.4248 20.9766C72.5316 21.2448 72.6813 21.4492 72.874 21.5898C73.0667 21.7305 73.292 21.8008 73.5498 21.8008C73.7399 21.8008 73.9105 21.7617 74.0615 21.6836C74.2152 21.6055 74.3415 21.4922 74.4404 21.3437C74.542 21.1927 74.6084 21.0117 74.6396 20.8008H76.21C76.1839 21.2591 76.0589 21.6628 75.835 22.0117C75.6136 22.3581 75.3076 22.6289 74.917 22.8242C74.5264 23.0195 74.0641 23.1172 73.5303 23.1172ZM79.9863 23.1172C79.3796 23.1172 78.8548 22.9883 78.4121 22.7305C77.972 22.4701 77.6322 22.1081 77.3926 21.6445C77.153 21.1784 77.0332 20.638 77.0332 20.0234C77.0332 19.4036 77.153 18.862 77.3926 18.3984C77.6322 17.9323 77.972 17.5703 78.4121 17.3125C78.8548 17.0521 79.3796 16.9219 79.9863 16.9219C80.5931 16.9219 81.1165 17.0521 81.5566 17.3125C81.9993 17.5703 82.3405 17.9323 82.5801 18.3984C82.8197 18.862 82.9395 19.4036 82.9395 20.0234C82.9395 20.638 82.8197 21.1784 82.5801 21.6445C82.3405 22.1081 81.9993 22.4701 81.5566 22.7305C81.1165 22.9883 80.5931 23.1172 79.9863 23.1172ZM79.9941 21.8281C80.2702 21.8281 80.5007 21.75 80.6855 21.5938C80.8704 21.4349 81.0098 21.2187 81.1035 20.9453C81.1999 20.6719 81.248 20.3607 81.248 20.0117C81.248 19.6628 81.1999 19.3516 81.1035 19.0781C81.0098 18.8047 80.8704 18.5885 80.6855 18.4297C80.5007 18.2708 80.2702 18.1914 79.9941 18.1914C79.7155 18.1914 79.4811 18.2708 79.291 18.4297C79.1035 18.5885 78.9616 18.8047 78.8652 19.0781C78.7715 19.3516 78.7246 19.6628 78.7246 20.0117C78.7246 20.3607 78.7715 20.6719 78.8652 20.9453C78.9616 21.2187 79.1035 21.4349 79.291 21.5938C79.4811 21.75 79.7155 21.8281 79.9941 21.8281ZM85.6855 19.5313V23H84.0215V17H85.6074V18.0586H85.6777C85.8105 17.7096 86.0332 17.4336 86.3457 17.2305C86.6582 17.0247 87.0371 16.9219 87.4824 16.9219C87.8991 16.9219 88.2624 17.013 88.5723 17.1953C88.8822 17.3776 89.123 17.638 89.2949 17.9766C89.4668 18.3125 89.5527 18.7135 89.5527 19.1797V23H87.8887V19.4766C87.8913 19.1094 87.7975 18.8229 87.6074 18.6172C87.4173 18.4089 87.1556 18.3047 86.8223 18.3047C86.5983 18.3047 86.4004 18.3529 86.2285 18.4492C86.0592 18.5456 85.9264 18.6862 85.8301 18.8711C85.7363 19.0534 85.6882 19.2734 85.6855 19.5313ZM92.5283 19.5313V23H90.8643V17H92.4502V18.0586H92.5205C92.6533 17.7096 92.876 17.4336 93.1885 17.2305C93.501 17.0247 93.8799 16.9219 94.3252 16.9219C94.7419 16.9219 95.1051 17.013 95.415 17.1953C95.7249 17.3776 95.9658 17.638 96.1377 17.9766C96.3096 18.3125 96.3955 18.7135 96.3955 19.1797V23H94.7314V19.4766C94.734 19.1094 94.6403 18.8229 94.4502 18.6172C94.2601 18.4089 93.9984 18.3047 93.665 18.3047C93.4411 18.3047 93.2432 18.3529 93.0713 18.4492C92.902 18.5456 92.7692 18.6862 92.6729 18.8711C92.5791 19.0534 92.5309 19.2734 92.5283 19.5313ZM100.441 23.1172C99.8242 23.1172 99.293 22.9922 98.8477 22.7422C98.4049 22.4896 98.0638 22.1328 97.8242 21.6719C97.5846 21.2083 97.4648 20.6602 97.4648 20.0273C97.4648 19.4102 97.5846 18.8685 97.8242 18.4023C98.0638 17.9362 98.401 17.5729 98.8359 17.3125C99.2734 17.0521 99.7865 16.9219 100.375 16.9219C100.771 16.9219 101.139 16.9857 101.48 17.1133C101.824 17.2383 102.124 17.4271 102.379 17.6797C102.637 17.9323 102.837 18.25 102.98 18.6328C103.124 19.013 103.195 19.4583 103.195 19.9687V20.4258H98.1289V19.3945H101.629C101.629 19.1549 101.577 18.9427 101.473 18.7578C101.368 18.5729 101.224 18.4284 101.039 18.3242C100.857 18.2174 100.645 18.1641 100.402 18.1641C100.15 18.1641 99.9258 18.2227 99.7305 18.3398C99.5378 18.4544 99.3867 18.6094 99.2773 18.8047C99.168 18.9974 99.112 19.2122 99.1094 19.4492V20.4297C99.1094 20.7266 99.1641 20.9831 99.2734 21.1992C99.3854 21.4154 99.543 21.582 99.7461 21.6992C99.9492 21.8164 100.19 21.875 100.469 21.875C100.654 21.875 100.823 21.849 100.977 21.7969C101.13 21.7448 101.262 21.6667 101.371 21.5625C101.48 21.4583 101.564 21.3307 101.621 21.1797L103.16 21.2812C103.082 21.651 102.922 21.974 102.68 22.25C102.44 22.5234 102.13 22.737 101.75 22.8906C101.372 23.0417 100.936 23.1172 100.441 23.1172ZM106.992 23.1172C106.378 23.1172 105.849 22.987 105.406 22.7266C104.966 22.4635 104.628 22.099 104.391 21.6328C104.156 21.1667 104.039 20.6302 104.039 20.0234C104.039 19.4089 104.158 18.8698 104.395 18.4062C104.634 17.9401 104.974 17.5768 105.414 17.3164C105.854 17.0534 106.378 16.9219 106.984 16.9219C107.508 16.9219 107.966 17.0169 108.359 17.207C108.753 17.3971 109.064 17.6641 109.293 18.0078C109.522 18.3516 109.648 18.7552 109.672 19.2188H108.102C108.057 18.9193 107.94 18.6784 107.75 18.4961C107.563 18.3112 107.316 18.2187 107.012 18.2187C106.754 18.2187 106.529 18.2891 106.336 18.4297C106.146 18.5677 105.997 18.7695 105.891 19.0352C105.784 19.3008 105.73 19.6224 105.73 20C105.73 20.3828 105.783 20.7083 105.887 20.9766C105.993 21.2448 106.143 21.4492 106.336 21.5898C106.529 21.7305 106.754 21.8008 107.012 21.8008C107.202 21.8008 107.372 21.7617 107.523 21.6836C107.677 21.6055 107.803 21.4922 107.902 21.3437C108.004 21.1927 108.07 21.0117 108.102 20.8008H109.672C109.646 21.2591 109.521 21.6628 109.297 22.0117C109.076 22.3581 108.77 22.6289 108.379 22.8242C107.988 23.0195 107.526 23.1172 106.992 23.1172ZM113.929 17V18.25H110.315V17H113.929ZM111.136 15.5625H112.8V21.1562C112.8 21.3099 112.823 21.4297 112.87 21.5156C112.917 21.599 112.982 21.6576 113.065 21.6914C113.151 21.7253 113.25 21.7422 113.362 21.7422C113.44 21.7422 113.519 21.7357 113.597 21.7227C113.675 21.707 113.735 21.6953 113.776 21.6875L114.038 22.9258C113.955 22.9518 113.838 22.9818 113.687 23.0156C113.535 23.0521 113.352 23.0742 113.136 23.082C112.735 23.0977 112.383 23.0443 112.081 22.9219C111.782 22.7995 111.549 22.6094 111.382 22.3516C111.215 22.0937 111.133 21.7682 111.136 21.375V15.5625Z" fill="#2254B4"/>
<path d="M122 19H129" stroke="#2254B4" stroke-linecap="round" stroke-linejoin="round"/>
<path d="M125.5 15.5L129 19L125.5 22.5" stroke="#2254B4" stroke-linecap="round" stroke-linejoin="round"/>
</svg>
