<svg width="93" height="17" viewBox="0 0 93 17" fill="none" xmlns="http://www.w3.org/2000/svg">
<g clip-path="url(#clip0_2_85)">
<path d="M11.9023 7.22599C14.1541 5.43768 18.753 -1.00638 11.5534 0.134436C8.4134 0.596929 3.81456 3.55688 2.89478 6.97933C2.41903 6.05434 1.87986 5.19102 1.30896 4.3277C0.420896 3.15606 -0.562314 4.08104 0.38918 5.25269C3.20973 8.57248 4.83594 12.698 5.01978 17C5.2418 14.9342 4.89291 12.4059 4.03657 9.93928C4.44888 10.0626 4.92463 10.1243 5.33694 10.1243C6.7959 12.4676 9.04779 14.4717 11.5534 15.3967C13.8687 16.2909 16.9452 15.7666 15.6765 12.1593C15.0104 10.1859 13.4564 8.45928 11.9023 7.22599ZM12.2194 0.966921C16.2157 0.535263 11.934 5.37602 10.5384 6.27017C9.23808 5.43768 7.58881 4.69769 6.00299 4.91352C7.14478 3.46438 9.93582 1.24442 12.2194 0.966921ZM5.97128 5.96185C7.04963 5.86934 8.22311 6.45517 9.14293 7.07183C8.25482 7.50348 7.30336 7.75014 6.32015 7.84264C4.8612 7.84264 4.54404 6.08517 5.97128 5.96185ZM11.49 13.4851C9.61866 12.9609 7.84255 11.4809 6.57388 10.0009C7.62053 9.78512 8.6672 9.38431 9.61866 8.82926C9.96753 8.6751 10.3164 8.42845 10.6336 8.21262C11.7437 9.19932 12.9171 10.5251 13.3612 12.0359C13.8053 13.6701 12.6 13.7934 11.49 13.4851Z" fill="#F5A623"/>
<path d="M27.219 3.15664H21.7638C21.5735 3.15664 21.4149 3.3108 21.4149 3.49579H21.3832V11.8207C21.3832 12.0057 21.5418 12.1598 21.732 12.1598C21.8906 12.1598 22.0492 12.0057 22.0809 11.8207V8.05906H26.7115C26.9018 8.05906 26.997 7.9049 26.997 7.75074C26.997 7.56573 26.8701 7.47323 26.7115 7.47323H22.0492V3.80412H27.219C27.4093 3.80412 27.5044 3.64996 27.5044 3.49579C27.5044 3.4033 27.4093 3.27996 27.219 3.15664ZM29.7246 2.72498H29.6928C29.5343 2.72498 29.4391 2.8483 29.4391 3.00247V11.7899C29.4391 11.9749 29.566 12.0982 29.7246 12.0982C29.9149 12.0982 30.01 11.944 30.01 11.7899V3.06413C30.01 2.8483 29.9149 2.72498 29.7246 2.72498ZM37.6219 5.86992C37.6219 5.68492 37.4951 5.5616 37.3365 5.5616C37.1462 5.5616 37.0511 5.71576 37.0511 5.86992V9.53906C37.0511 10.7723 36.0679 11.759 34.8626 11.7282C33.594 11.7282 32.8645 10.8648 32.8645 9.50823V5.86992C32.8645 5.68492 32.7376 5.5616 32.579 5.5616C32.4522 5.5616 32.2936 5.71576 32.2936 5.86992V9.60073C32.2936 11.1423 33.2451 12.2832 34.7992 12.2832C35.7507 12.314 36.6388 11.7899 37.0828 10.9265V11.8824C37.0828 12.0673 37.2413 12.1598 37.3682 12.1598C37.5585 12.1598 37.6536 12.0057 37.6536 11.8824H37.6219V5.86992ZM42.8552 6.17826C42.9821 6.17826 43.1406 6.05492 43.1406 5.90075C43.1406 5.77743 42.9821 5.62326 42.8552 5.62326H40.8571V3.80412C40.8571 3.64996 40.6985 3.49579 40.5716 3.49579H40.5399C40.3813 3.49579 40.2862 3.64996 40.2862 3.80412V5.62326H39.5884C39.4298 5.62326 39.3029 5.71576 39.3029 5.86992C39.3029 6.02409 39.4298 6.17826 39.5884 6.17826H40.2862V10.4332C40.2862 11.6356 41.0791 12.2215 41.9988 12.2215C42.316 12.2215 42.6332 12.1598 42.9186 12.0673C43.0138 12.0057 43.1089 11.9132 43.1089 11.7899C43.1089 11.6356 42.9821 11.5431 42.8552 11.5431C42.6332 11.6048 42.3794 11.6356 42.1257 11.6356C41.3645 11.6356 40.8571 11.2965 40.8571 10.3715V6.17826H42.8552ZM47.7712 6.17826C47.9298 6.17826 48.0567 6.05492 48.0567 5.90075C48.0567 5.77743 47.9298 5.62326 47.7712 5.62326H45.7731V3.80412C45.7731 3.64996 45.6462 3.49579 45.4877 3.49579H45.4559C45.2974 3.49579 45.2022 3.64996 45.2022 3.80412V5.62326H44.5044C44.3775 5.62326 44.219 5.71576 44.219 5.86992C44.219 6.02409 44.3775 6.17826 44.5044 6.17826H45.2022V10.4332C45.2022 11.6356 45.9951 12.2215 46.9466 12.2215C47.232 12.2215 47.5492 12.1598 47.8347 12.0673C47.9615 12.0057 48.025 11.9132 48.025 11.7899C48.025 11.6356 47.9298 11.5431 47.7712 11.5431C47.5492 11.6048 47.2955 11.6356 47.0417 11.6356C46.2805 11.6356 45.7731 11.2965 45.7731 10.3715V6.17826H47.7712ZM52.1164 5.43826C50.4354 5.43826 49.1667 6.91824 49.1667 8.86068V8.89152C49.1667 10.9573 50.5623 12.314 52.2433 12.314C53.1313 12.3448 54.0511 11.9749 54.6537 11.2656C54.7489 11.204 54.7806 11.1115 54.7806 11.0498C54.7806 10.8957 54.622 10.7415 54.4952 10.7415L54.3048 10.8032C54.0532 11.0884 53.7421 11.3183 53.3922 11.4778C53.0422 11.6372 52.6614 11.7226 52.275 11.7282C51.038 11.7282 49.928 10.7723 49.8011 9.169H54.7489C54.8757 9.169 55.0343 9.01484 55.0343 8.86068C55.0343 6.91824 53.8925 5.43826 52.1164 5.43826ZM49.7694 8.55237C49.8645 7.13407 50.8477 6.02409 52.0847 6.02409C53.5119 6.02409 54.2731 7.22657 54.3365 8.55237H49.7694ZM59.8869 5.53076C58.7451 5.62326 57.7936 6.39408 57.3813 7.50406V5.90075C57.3813 5.77743 57.2228 5.62326 57.0959 5.62326C56.9056 5.62326 56.8104 5.71576 56.7787 5.90075V11.944C56.7787 12.0982 56.9056 12.2523 57.0642 12.2523C57.2228 12.2523 57.3496 12.129 57.3813 11.944V9.53906C57.3813 7.41157 58.5548 6.39408 59.8869 6.23992H59.9186C60.1089 6.23992 60.2041 6.05492 60.2041 5.90075C60.2041 5.68492 60.0772 5.53076 59.8869 5.53076Z" fill="black"/>
<path d="M70.5793 5.18966C70.167 5.18966 69.7864 5.49799 69.6913 5.92965L68.6128 9.44457L67.5662 5.92965C67.4711 5.49799 67.0588 5.15883 66.5831 5.15883H66.4879C66.0121 5.15883 65.5998 5.43632 65.5047 5.92965L64.4581 9.3829L63.4431 5.89882C63.3162 5.49799 62.9674 5.15883 62.5233 5.15883H62.4916C62.0159 5.15883 61.667 5.55966 61.667 6.05298L61.7305 6.51548L63.3479 11.3562C63.4748 11.8495 63.8871 12.1888 64.3946 12.2196H64.4581C64.9338 12.2196 65.3144 11.8804 65.4729 11.3871L66.5196 7.93381L67.5662 11.3871C67.6931 11.8804 68.1054 12.2196 68.5811 12.2196H68.6763C69.1838 12.2196 69.5961 11.8804 69.723 11.3562L71.3405 6.4538L71.4357 6.08382V6.05298C71.4357 5.55966 71.055 5.18966 70.5793 5.18966ZM75.2416 5.18966C74.5121 5.15883 73.8144 5.31299 73.1166 5.52882C72.8312 5.65215 72.6726 5.92965 72.6726 6.26881C72.6726 6.73131 73.0214 7.07046 73.4655 7.03963C73.529 7.03963 73.6241 7.03963 73.7193 6.97797C74.1316 6.85463 74.5756 6.79297 75.0196 6.79297C75.9711 6.79297 76.4469 7.22463 76.4469 8.05714V8.14963C75.9394 7.96464 75.3685 7.90298 74.8293 7.90298C73.2752 7.90298 72.1968 8.61211 72.1968 10.1229C72.1968 11.4487 73.2435 12.2196 74.4487 12.2196C75.2099 12.2504 75.9394 11.9112 76.4469 11.3562C76.4786 11.8495 76.8592 12.1888 77.3349 12.1888C77.8423 12.1888 78.2546 11.757 78.2546 11.2329V8.14963C78.2864 7.37879 78.0326 6.57714 77.5252 5.99131C76.986 5.49799 76.2566 5.18966 75.2416 5.18966ZM76.4786 9.66039C76.4786 10.4004 75.8442 10.8629 74.9879 10.8321C74.3853 10.8321 73.973 10.5238 73.973 9.99962V9.96879C73.973 9.3829 74.4804 9.01292 75.2733 9.01292C75.6539 9.01292 76.098 9.13625 76.4786 9.29041V9.66039ZM84.6928 5.15883C84.3128 5.15883 83.9321 5.40549 83.8367 5.83715L82.3781 9.81455L80.9823 5.86798C80.8551 5.43632 80.5062 5.15883 80.0627 5.15883C79.5865 5.15883 79.2062 5.52882 79.1428 6.05298C79.1428 6.20714 79.2062 6.36131 79.2696 6.51548L81.2995 11.3562C81.4267 11.8495 81.8384 12.1888 82.3463 12.2196H82.4727C82.917 12.1888 83.3614 11.8804 83.5514 11.3871L85.5179 6.54631L85.6133 6.08382V6.05298C85.6133 5.55966 85.2325 5.15883 84.6928 5.15883ZM89.6091 5.128C87.6744 5.128 86.3421 6.73131 86.3421 8.67377V8.98209C86.4057 10.8629 87.9915 12.3121 89.7998 12.2196C90.6241 12.2196 91.4166 11.942 92.0827 11.3871C92.2735 11.2329 92.3371 11.0479 92.3371 10.8321V10.8012C92.3371 10.3696 92.0199 10.0304 91.6074 10.0304C91.4484 10.0304 91.2902 10.0613 91.163 10.1846C90.7934 10.494 90.3189 10.6589 89.8308 10.6471C89.0384 10.6779 88.3405 10.1229 88.2451 9.29041H91.9563C92.4317 9.25958 92.8124 8.82793 92.7806 8.33462V8.18046C92.7806 6.51548 91.3538 5.06633 89.6091 5.128ZM88.1823 8.14963C88.3405 7.25546 88.8476 6.70047 89.6091 6.70047C90.3706 6.70047 90.8777 7.28629 90.9731 8.14963H88.1823Z" fill="black"/>
</g>
<defs>
<clipPath id="clip0_2_85">
<rect width="93" height="17" fill="white"/>
</clipPath>
</defs>
</svg>
