<svg width="154" height="38" viewBox="0 0 154 38" fill="none" xmlns="http://www.w3.org/2000/svg">
<rect width="154" height="38" rx="4" fill="#2254B4"/>
<path d="M19.5352 17.3008C19.5039 16.9857 19.3698 16.7409 19.1328 16.5664C18.8958 16.3919 18.5742 16.3047 18.168 16.3047C17.8919 16.3047 17.6589 16.3437 17.4688 16.4219C17.2786 16.4974 17.1328 16.6029 17.0313 16.7383C16.9323 16.8737 16.8828 17.0273 16.8828 17.1992C16.8776 17.3424 16.9076 17.4674 16.9727 17.5742C17.0404 17.681 17.1328 17.7734 17.25 17.8516C17.3672 17.9271 17.5026 17.9935 17.6562 18.0508C17.8099 18.1055 17.974 18.1523 18.1484 18.1914L18.8672 18.3633C19.2161 18.4414 19.5365 18.5456 19.8281 18.6758C20.1198 18.806 20.3724 18.9661 20.5859 19.1562C20.7995 19.3464 20.9648 19.5703 21.082 19.8281C21.2018 20.0859 21.263 20.3815 21.2656 20.7148C21.263 21.2044 21.138 21.6289 20.8906 21.9883C20.6458 22.3451 20.2917 22.6224 19.8281 22.8203C19.3672 23.0156 18.8112 23.1133 18.1602 23.1133C17.5143 23.1133 16.9518 23.0143 16.4727 22.8164C15.9961 22.6185 15.6237 22.3255 15.3555 21.9375C15.0898 21.5469 14.9505 21.0638 14.9375 20.4883H16.5742C16.5924 20.7565 16.6693 20.9805 16.8047 21.1602C16.9427 21.3372 17.1263 21.4714 17.3555 21.5625C17.5872 21.651 17.849 21.6953 18.1406 21.6953C18.4271 21.6953 18.6758 21.6536 18.8867 21.5703C19.1003 21.487 19.2656 21.3711 19.3828 21.2227C19.5 21.0742 19.5586 20.9036 19.5586 20.7109C19.5586 20.5312 19.5052 20.3802 19.3984 20.2578C19.2943 20.1354 19.1406 20.0312 18.9375 19.9453C18.737 19.8594 18.4909 19.7812 18.1992 19.7109L17.3281 19.4922C16.6536 19.3281 16.1211 19.0716 15.7305 18.7227C15.3398 18.3737 15.1458 17.9036 15.1484 17.3125C15.1458 16.8281 15.2747 16.4049 15.5352 16.043C15.7982 15.681 16.1589 15.3984 16.6172 15.1953C17.0755 14.9922 17.5964 14.8906 18.1797 14.8906C18.7734 14.8906 19.2917 14.9922 19.7344 15.1953C20.1797 15.3984 20.526 15.681 20.7734 16.043C21.0208 16.4049 21.1484 16.8242 21.1562 17.3008H19.5352ZM25.5635 17V18.25H21.9502V17H25.5635ZM22.7705 15.5625H24.4346V21.1562C24.4346 21.3099 24.458 21.4297 24.5049 21.5156C24.5518 21.599 24.6169 21.6576 24.7002 21.6914C24.7861 21.7253 24.8851 21.7422 24.9971 21.7422C25.0752 21.7422 25.1533 21.7357 25.2314 21.7227C25.3096 21.707 25.3695 21.6953 25.4111 21.6875L25.6729 22.9258C25.5895 22.9518 25.4723 22.9818 25.3213 23.0156C25.1702 23.0521 24.9867 23.0742 24.7705 23.082C24.3695 23.0977 24.0179 23.0443 23.7158 22.9219C23.4163 22.7995 23.1833 22.6094 23.0166 22.3516C22.8499 22.0937 22.7679 21.7682 22.7705 21.375V15.5625ZM28.3584 23.1133C27.9756 23.1133 27.6344 23.0469 27.335 22.9141C27.0355 22.7786 26.7985 22.5794 26.624 22.3164C26.4521 22.0508 26.3662 21.7201 26.3662 21.3242C26.3662 20.9909 26.4274 20.7109 26.5498 20.4844C26.6722 20.2578 26.8389 20.0755 27.0498 19.9375C27.2607 19.7995 27.5003 19.6953 27.7686 19.625C28.0394 19.5547 28.3232 19.5052 28.6201 19.4766C28.9691 19.4401 29.2503 19.4062 29.4639 19.375C29.6774 19.3411 29.8324 19.2917 29.9287 19.2266C30.0251 19.1615 30.0732 19.0651 30.0732 18.9375V18.9141C30.0732 18.6667 29.9951 18.4753 29.8389 18.3398C29.6852 18.2044 29.4665 18.1367 29.1826 18.1367C28.8831 18.1367 28.6449 18.2031 28.4678 18.3359C28.2907 18.4661 28.1735 18.6302 28.1162 18.8281L26.5771 18.7031C26.6553 18.3385 26.8089 18.0234 27.0381 17.7578C27.2673 17.4896 27.5628 17.2839 27.9248 17.1406C28.2894 16.9948 28.7113 16.9219 29.1904 16.9219C29.5238 16.9219 29.8428 16.9609 30.1475 17.0391C30.4548 17.1172 30.7269 17.2383 30.9639 17.4023C31.2035 17.5664 31.3923 17.7773 31.5303 18.0352C31.6683 18.2904 31.7373 18.5964 31.7373 18.9531V23H30.1592V22.168H30.1123C30.016 22.3555 29.887 22.5208 29.7256 22.6641C29.5641 22.8047 29.3701 22.9154 29.1436 22.9961C28.917 23.0742 28.6553 23.1133 28.3584 23.1133ZM28.835 21.9648C29.0798 21.9648 29.2959 21.9167 29.4834 21.8203C29.6709 21.7214 29.818 21.5885 29.9248 21.4219C30.0316 21.2552 30.085 21.0664 30.085 20.8555V20.2188C30.0329 20.2526 29.9613 20.2839 29.8701 20.3125C29.7816 20.3385 29.6813 20.3633 29.5693 20.3867C29.4574 20.4076 29.3454 20.4271 29.2334 20.4453C29.1214 20.4609 29.0199 20.4753 28.9287 20.4883C28.7334 20.5169 28.5628 20.5625 28.417 20.625C28.2712 20.6875 28.1579 20.7721 28.0771 20.8789C27.9964 20.9831 27.9561 21.1133 27.9561 21.2695C27.9561 21.4961 28.0381 21.6693 28.2021 21.7891C28.3688 21.9062 28.5798 21.9648 28.835 21.9648ZM33.0283 23V17H34.6416V18.0469H34.7041C34.8135 17.6745 34.9971 17.3932 35.2549 17.2031C35.5127 17.0104 35.8096 16.9141 36.1455 16.9141C36.2288 16.9141 36.3187 16.9193 36.415 16.9297C36.5114 16.9401 36.596 16.9544 36.6689 16.9727V18.4492C36.5908 18.4258 36.4827 18.4049 36.3447 18.3867C36.2067 18.3685 36.0804 18.3594 35.9658 18.3594C35.721 18.3594 35.5023 18.4128 35.3096 18.5195C35.1195 18.6237 34.9684 18.7695 34.8564 18.957C34.7471 19.1445 34.6924 19.3607 34.6924 19.6055V23H33.0283ZM41.0215 17V18.25H37.4082V17H41.0215ZM38.2285 15.5625H39.8926V21.1562C39.8926 21.3099 39.916 21.4297 39.9629 21.5156C40.0098 21.599 40.0749 21.6576 40.1582 21.6914C40.2441 21.7253 40.3431 21.7422 40.4551 21.7422C40.5332 21.7422 40.6113 21.7357 40.6895 21.7227C40.7676 21.707 40.8275 21.6953 40.8691 21.6875L41.1309 22.9258C41.0475 22.9518 40.9303 22.9818 40.7793 23.0156C40.6283 23.0521 40.4447 23.0742 40.2285 23.082C39.8275 23.0977 39.4759 23.0443 39.1738 22.9219C38.8743 22.7995 38.6413 22.6094 38.4746 22.3516C38.3079 22.0937 38.2259 21.7682 38.2285 21.375V15.5625ZM45.835 23L44.2021 17H45.8857L46.8154 21.0312H46.8701L47.8389 17H49.4912L50.4756 21.0078H50.5264L51.4404 17H53.1201L51.4912 23H49.7295L48.6982 19.2266H48.624L47.5928 23H45.835ZM54.0078 23V17H55.6719V23H54.0078ZM54.8438 16.2266C54.5964 16.2266 54.3841 16.1445 54.207 15.9805C54.0326 15.8138 53.9453 15.6146 53.9453 15.3828C53.9453 15.1536 54.0326 14.957 54.207 14.793C54.3841 14.6263 54.5964 14.543 54.8438 14.543C55.0911 14.543 55.3021 14.6263 55.4766 14.793C55.6536 14.957 55.7422 15.1536 55.7422 15.3828C55.7422 15.6146 55.6536 15.8138 55.4766 15.9805C55.3021 16.1445 55.0911 16.2266 54.8438 16.2266ZM60.1963 17V18.25H56.583V17H60.1963ZM57.4033 15.5625H59.0674V21.1562C59.0674 21.3099 59.0908 21.4297 59.1377 21.5156C59.1846 21.599 59.2497 21.6576 59.333 21.6914C59.4189 21.7253 59.5179 21.7422 59.6299 21.7422C59.708 21.7422 59.7861 21.7357 59.8643 21.7227C59.9424 21.707 60.0023 21.6953 60.0439 21.6875L60.3057 22.9258C60.2223 22.9518 60.1051 22.9818 59.9541 23.0156C59.8031 23.0521 59.6195 23.0742 59.4033 23.082C59.0023 23.0977 58.6507 23.0443 58.3486 22.9219C58.0492 22.7995 57.8161 22.6094 57.6494 22.3516C57.4827 22.0937 57.4007 21.7682 57.4033 21.375V15.5625ZM63.0732 19.5313V23H61.4092V15H63.0264V18.0586H63.0967C63.2321 17.7044 63.4508 17.4271 63.7529 17.2266C64.055 17.0234 64.4339 16.9219 64.8896 16.9219C65.3063 16.9219 65.6696 17.013 65.9795 17.1953C66.292 17.375 66.5342 17.6341 66.7061 17.9727C66.8805 18.3086 66.9665 18.7109 66.9639 19.1797V23H65.2998V19.4766C65.3024 19.1068 65.2087 18.819 65.0186 18.6133C64.8311 18.4076 64.568 18.3047 64.2295 18.3047C64.0029 18.3047 63.8024 18.3529 63.6279 18.4492C63.4561 18.5456 63.3206 18.6862 63.2217 18.8711C63.1253 19.0534 63.0758 19.2734 63.0732 19.5313ZM73.6865 23H70.8506V15H73.71C74.5146 15 75.2074 15.1602 75.7881 15.4805C76.3688 15.7982 76.8154 16.2552 77.1279 16.8516C77.443 17.4479 77.6006 18.1615 77.6006 18.9922C77.6006 19.8255 77.443 20.5417 77.1279 21.1406C76.8154 21.7396 76.3662 22.1992 75.7803 22.5195C75.1969 22.8398 74.499 23 73.6865 23ZM72.542 21.5508H73.6162C74.1162 21.5508 74.5368 21.4622 74.8779 21.2852C75.2217 21.1055 75.4795 20.8281 75.6514 20.4531C75.8258 20.0755 75.9131 19.5885 75.9131 18.9922C75.9131 18.401 75.8258 17.918 75.6514 17.543C75.4795 17.168 75.223 16.8919 74.8818 16.7148C74.5407 16.5378 74.1201 16.4492 73.6201 16.4492H72.542V21.5508ZM78.8223 23V17H80.4863V23H78.8223ZM79.6582 16.2266C79.4108 16.2266 79.1986 16.1445 79.0215 15.9805C78.847 15.8138 78.7598 15.6146 78.7598 15.3828C78.7598 15.1536 78.847 14.957 79.0215 14.793C79.1986 14.6263 79.4108 14.543 79.6582 14.543C79.9056 14.543 80.1165 14.6263 80.291 14.793C80.4681 14.957 80.5566 15.1536 80.5566 15.3828C80.5566 15.6146 80.4681 15.8138 80.291 15.9805C80.1165 16.1445 79.9056 16.2266 79.6582 16.2266ZM81.8193 23V17H83.4326V18.0469H83.4951C83.6045 17.6745 83.7881 17.3932 84.0459 17.2031C84.3037 17.0104 84.6006 16.9141 84.9365 16.9141C85.0199 16.9141 85.1097 16.9193 85.2061 16.9297C85.3024 16.9401 85.387 16.9544 85.46 16.9727V18.4492C85.3818 18.4258 85.2738 18.4049 85.1357 18.3867C84.9977 18.3685 84.8714 18.3594 84.7568 18.3594C84.512 18.3594 84.2933 18.4128 84.1006 18.5195C83.9105 18.6237 83.7594 18.7695 83.6475 18.957C83.5381 19.1445 83.4834 19.3607 83.4834 19.6055V23H81.8193ZM88.7754 23.1172C88.1582 23.1172 87.627 22.9922 87.1816 22.7422C86.7389 22.4896 86.3978 22.1328 86.1582 21.6719C85.9186 21.2083 85.7988 20.6602 85.7988 20.0273C85.7988 19.4102 85.9186 18.8685 86.1582 18.4023C86.3978 17.9362 86.735 17.5729 87.1699 17.3125C87.6074 17.0521 88.1204 16.9219 88.709 16.9219C89.1048 16.9219 89.4733 16.9857 89.8145 17.1133C90.1582 17.2383 90.4577 17.4271 90.7129 17.6797C90.9707 17.9323 91.1712 18.25 91.3145 18.6328C91.4577 19.013 91.5293 19.4583 91.5293 19.9687V20.4258H86.4629V19.3945H89.9629C89.9629 19.1549 89.9108 18.9427 89.8066 18.7578C89.7025 18.5729 89.5579 18.4284 89.373 18.3242C89.1908 18.2174 88.9785 18.1641 88.7363 18.1641C88.4837 18.1641 88.2598 18.2227 88.0645 18.3398C87.8717 18.4544 87.7207 18.6094 87.6113 18.8047C87.502 18.9974 87.446 19.2122 87.4434 19.4492V20.4297C87.4434 20.7266 87.498 20.9831 87.6074 21.1992C87.7194 21.4154 87.877 21.582 88.0801 21.6992C88.2832 21.8164 88.5241 21.875 88.8027 21.875C88.9876 21.875 89.1569 21.849 89.3105 21.7969C89.4642 21.7448 89.5957 21.6667 89.7051 21.5625C89.8145 21.4583 89.8978 21.3307 89.9551 21.1797L91.4941 21.2812C91.416 21.651 91.2559 21.974 91.0137 22.25C90.7741 22.5234 90.4642 22.737 90.084 22.8906C89.7064 23.0417 89.2702 23.1172 88.7754 23.1172ZM95.3262 23.1172C94.7116 23.1172 94.1829 22.987 93.7402 22.7266C93.3001 22.4635 92.9616 22.099 92.7246 21.6328C92.4902 21.1667 92.373 20.6302 92.373 20.0234C92.373 19.4089 92.4915 18.8698 92.7285 18.4062C92.9681 17.9401 93.3079 17.5768 93.748 17.3164C94.1882 17.0534 94.7116 16.9219 95.3184 16.9219C95.8418 16.9219 96.3001 17.0169 96.6934 17.207C97.0866 17.3971 97.3978 17.6641 97.627 18.0078C97.8561 18.3516 97.9824 18.7552 98.0059 19.2188H96.4355C96.3913 18.9193 96.2741 18.6784 96.084 18.4961C95.8965 18.3112 95.6504 18.2187 95.3457 18.2187C95.0879 18.2187 94.8626 18.2891 94.6699 18.4297C94.4798 18.5677 94.3314 18.7695 94.2246 19.0352C94.1178 19.3008 94.0645 19.6224 94.0645 20C94.0645 20.3828 94.1165 20.7083 94.2207 20.9766C94.3275 21.2448 94.4772 21.4492 94.6699 21.5898C94.8626 21.7305 95.0879 21.8008 95.3457 21.8008C95.5358 21.8008 95.7064 21.7617 95.8574 21.6836C96.0111 21.6055 96.1374 21.4922 96.2363 21.3437C96.3379 21.1927 96.4043 21.0117 96.4355 20.8008H98.0059C97.9798 21.2591 97.8548 21.6628 97.6309 22.0117C97.4095 22.3581 97.1035 22.6289 96.7129 22.8242C96.3223 23.0195 95.86 23.1172 95.3262 23.1172ZM102.263 17V18.25H98.6494V17H102.263ZM99.4697 15.5625H101.134V21.1562C101.134 21.3099 101.157 21.4297 101.204 21.5156C101.251 21.599 101.316 21.6576 101.399 21.6914C101.485 21.7253 101.584 21.7422 101.696 21.7422C101.774 21.7422 101.853 21.7357 101.931 21.7227C102.009 21.707 102.069 21.6953 102.11 21.6875L102.372 22.9258C102.289 22.9518 102.172 22.9818 102.021 23.0156C101.869 23.0521 101.686 23.0742 101.47 23.082C101.069 23.0977 100.717 23.0443 100.415 22.9219C100.116 22.7995 99.8825 22.6094 99.7158 22.3516C99.5492 22.0937 99.4671 21.7682 99.4697 21.375V15.5625ZM103.507 23V15H106.663C107.27 15 107.787 15.1159 108.214 15.3477C108.641 15.5768 108.966 15.8958 109.19 16.3047C109.417 16.7109 109.53 17.1797 109.53 17.7109C109.53 18.2422 109.416 18.7109 109.187 19.1172C108.957 19.5234 108.625 19.8398 108.19 20.0664C107.758 20.293 107.235 20.4062 106.62 20.4062H104.608V19.0508H106.347C106.672 19.0508 106.94 18.9948 107.151 18.8828C107.365 18.7682 107.524 18.6107 107.628 18.4102C107.735 18.207 107.788 17.974 107.788 17.7109C107.788 17.4453 107.735 17.2135 107.628 17.0156C107.524 16.8151 107.365 16.6602 107.151 16.5508C106.938 16.4388 106.667 16.3828 106.339 16.3828H105.198V23H103.507ZM112.147 23.1133C111.765 23.1133 111.424 23.0469 111.124 22.9141C110.825 22.7786 110.588 22.5794 110.413 22.3164C110.241 22.0508 110.155 21.7201 110.155 21.3242C110.155 20.9909 110.216 20.7109 110.339 20.4844C110.461 20.2578 110.628 20.0755 110.839 19.9375C111.05 19.7995 111.289 19.6953 111.558 19.625C111.828 19.5547 112.112 19.5052 112.409 19.4766C112.758 19.4401 113.039 19.4062 113.253 19.375C113.466 19.3411 113.621 19.2917 113.718 19.2266C113.814 19.1615 113.862 19.0651 113.862 18.9375V18.9141C113.862 18.6667 113.784 18.4753 113.628 18.3398C113.474 18.2044 113.256 18.1367 112.972 18.1367C112.672 18.1367 112.434 18.2031 112.257 18.3359C112.08 18.4661 111.963 18.6302 111.905 18.8281L110.366 18.7031C110.444 18.3385 110.598 18.0234 110.827 17.7578C111.056 17.4896 111.352 17.2839 111.714 17.1406C112.078 16.9948 112.5 16.9219 112.979 16.9219C113.313 16.9219 113.632 16.9609 113.937 17.0391C114.244 17.1172 114.516 17.2383 114.753 17.4023C114.993 17.5664 115.181 17.7773 115.319 18.0352C115.457 18.2904 115.526 18.5964 115.526 18.9531V23H113.948V22.168H113.901C113.805 22.3555 113.676 22.5208 113.515 22.6641C113.353 22.8047 113.159 22.9154 112.933 22.9961C112.706 23.0742 112.444 23.1133 112.147 23.1133ZM112.624 21.9648C112.869 21.9648 113.085 21.9167 113.272 21.8203C113.46 21.7214 113.607 21.5885 113.714 21.4219C113.821 21.2552 113.874 21.0664 113.874 20.8555V20.2188C113.822 20.2526 113.75 20.2839 113.659 20.3125C113.571 20.3385 113.47 20.3633 113.358 20.3867C113.246 20.4076 113.134 20.4271 113.022 20.4453C112.91 20.4609 112.809 20.4753 112.718 20.4883C112.522 20.5169 112.352 20.5625 112.206 20.625C112.06 20.6875 111.947 20.7721 111.866 20.8789C111.785 20.9831 111.745 21.1133 111.745 21.2695C111.745 21.4961 111.827 21.6693 111.991 21.7891C112.158 21.9062 112.369 21.9648 112.624 21.9648ZM117.63 25.25C117.419 25.25 117.221 25.2331 117.036 25.1992C116.854 25.168 116.703 25.1276 116.583 25.0781L116.958 23.8359C117.153 23.8958 117.329 23.9284 117.485 23.9336C117.644 23.9388 117.781 23.9023 117.896 23.8242C118.013 23.7461 118.108 23.6133 118.181 23.4258L118.278 23.1719L116.126 17H117.876L119.118 21.4062H119.181L120.435 17H122.196L119.864 23.6484C119.752 23.9714 119.6 24.2526 119.407 24.4922C119.217 24.7344 118.976 24.9206 118.685 25.0508C118.393 25.1836 118.041 25.25 117.63 25.25Z" fill="white"/>
<path d="M130 19H137" stroke="white" stroke-linecap="round" stroke-linejoin="round"/>
<path d="M133.5 15.5L137 19L133.5 22.5" stroke="white" stroke-linecap="round" stroke-linejoin="round"/>
</svg>
