<svg width="134" height="38" viewBox="0 0 134 38" fill="none" xmlns="http://www.w3.org/2000/svg">
<rect width="134" height="38" rx="4" fill="#202020"/>
<path d="M15.1953 23V15H18.3516C18.9557 15 19.4714 15.1081 19.8984 15.3242C20.3281 15.5378 20.6549 15.8411 20.8789 16.2344C21.1055 16.625 21.2188 17.0846 21.2188 17.6133C21.2188 18.1445 21.1042 18.6016 20.875 18.9844C20.6458 19.3646 20.3138 19.6562 19.8789 19.8594C19.4466 20.0625 18.9232 20.1641 18.3086 20.1641H16.1953V18.8047H18.0352C18.3581 18.8047 18.6263 18.7604 18.8398 18.6719C19.0534 18.5833 19.2122 18.4505 19.3164 18.2734C19.4232 18.0964 19.4766 17.8763 19.4766 17.6133C19.4766 17.3477 19.4232 17.1237 19.3164 16.9414C19.2122 16.7591 19.0521 16.6211 18.8359 16.5273C18.6224 16.431 18.3529 16.3828 18.0273 16.3828H16.8867V23H15.1953ZM19.5156 19.3594L21.5039 23H19.6367L17.6914 19.3594H19.5156ZM25.0205 23.1172C24.4033 23.1172 23.8721 22.9922 23.4268 22.7422C22.984 22.4896 22.6429 22.1328 22.4033 21.6719C22.1637 21.2083 22.0439 20.6602 22.0439 20.0273C22.0439 19.4102 22.1637 18.8685 22.4033 18.4023C22.6429 17.9362 22.9801 17.5729 23.415 17.3125C23.8525 17.0521 24.3656 16.9219 24.9541 16.9219C25.3499 16.9219 25.7184 16.9857 26.0596 17.1133C26.4033 17.2383 26.7028 17.4271 26.958 17.6797C27.2158 17.9323 27.4163 18.25 27.5596 18.6328C27.7028 19.013 27.7744 19.4583 27.7744 19.9687V20.4258H22.708V19.3945H26.208C26.208 19.1549 26.1559 18.9427 26.0518 18.7578C25.9476 18.5729 25.8031 18.4284 25.6182 18.3242C25.4359 18.2174 25.2236 18.1641 24.9814 18.1641C24.7288 18.1641 24.5049 18.2227 24.3096 18.3398C24.1169 18.4544 23.9658 18.6094 23.8564 18.8047C23.7471 18.9974 23.6911 19.2122 23.6885 19.4492V20.4297C23.6885 20.7266 23.7432 20.9831 23.8525 21.1992C23.9645 21.4154 24.1221 21.582 24.3252 21.6992C24.5283 21.8164 24.7692 21.875 25.0479 21.875C25.2327 21.875 25.402 21.849 25.5557 21.7969C25.7093 21.7448 25.8408 21.6667 25.9502 21.5625C26.0596 21.4583 26.1429 21.3307 26.2002 21.1797L27.7393 21.2812C27.6611 21.651 27.501 21.974 27.2588 22.25C27.0192 22.5234 26.7093 22.737 26.3291 22.8906C25.9515 23.0417 25.5153 23.1172 25.0205 23.1172ZM32.8252 25.25V22.0391H32.7744C32.6963 22.2057 32.5856 22.3711 32.4424 22.5352C32.3018 22.6966 32.1182 22.8307 31.8916 22.9375C31.6676 23.0443 31.3942 23.0977 31.0713 23.0977C30.6156 23.0977 30.2028 22.9805 29.833 22.7461C29.4658 22.5091 29.1742 22.1615 28.958 21.7031C28.7445 21.2422 28.6377 20.6771 28.6377 20.0078C28.6377 19.3203 28.7484 18.7487 28.9697 18.293C29.1911 17.8346 29.4854 17.4922 29.8525 17.2656C30.2223 17.0365 30.6273 16.9219 31.0674 16.9219C31.4033 16.9219 31.6833 16.9792 31.9072 17.0938C32.1338 17.2057 32.3161 17.3464 32.4541 17.5156C32.5947 17.6823 32.7015 17.8464 32.7744 18.0078H32.8447V17H34.4854V25.25H32.8252ZM31.5986 21.7734C31.8669 21.7734 32.0934 21.7005 32.2783 21.5547C32.4658 21.4062 32.609 21.1992 32.708 20.9336C32.8096 20.668 32.8604 20.3568 32.8604 20C32.8604 19.6432 32.8109 19.3333 32.7119 19.0703C32.613 18.8073 32.4697 18.6042 32.2822 18.4609C32.0947 18.3177 31.8669 18.2461 31.5986 18.2461C31.3252 18.2461 31.0947 18.3203 30.9072 18.4687C30.7197 18.6172 30.5778 18.8229 30.4814 19.0859C30.3851 19.349 30.3369 19.6536 30.3369 20C30.3369 20.349 30.3851 20.6576 30.4814 20.9258C30.5804 21.1914 30.7223 21.3997 30.9072 21.5508C31.0947 21.6992 31.3252 21.7734 31.5986 21.7734ZM39.6689 20.4453V17H41.333V23H39.7354V21.9102H39.6729C39.5374 22.2617 39.3122 22.5443 38.9971 22.7578C38.6846 22.9714 38.3031 23.0781 37.8525 23.0781C37.4515 23.0781 37.0986 22.987 36.7939 22.8047C36.4893 22.6224 36.251 22.3633 36.0791 22.0273C35.9098 21.6914 35.8239 21.2891 35.8213 20.8203V17H37.4854V20.5234C37.488 20.8776 37.583 21.1576 37.7705 21.3633C37.958 21.569 38.2093 21.6719 38.5244 21.6719C38.7249 21.6719 38.9124 21.6263 39.0869 21.5352C39.2614 21.4414 39.402 21.3034 39.5088 21.1211C39.6182 20.9388 39.6715 20.7135 39.6689 20.4453ZM45.3984 23.1172C44.7813 23.1172 44.25 22.9922 43.8047 22.7422C43.362 22.4896 43.0208 22.1328 42.7812 21.6719C42.5417 21.2083 42.4219 20.6602 42.4219 20.0273C42.4219 19.4102 42.5417 18.8685 42.7812 18.4023C43.0208 17.9362 43.3581 17.5729 43.793 17.3125C44.2305 17.0521 44.7435 16.9219 45.332 16.9219C45.7279 16.9219 46.0964 16.9857 46.4375 17.1133C46.7813 17.2383 47.0807 17.4271 47.3359 17.6797C47.5938 17.9323 47.7943 18.25 47.9375 18.6328C48.0807 19.013 48.1523 19.4583 48.1523 19.9687V20.4258H43.0859V19.3945H46.5859C46.5859 19.1549 46.5339 18.9427 46.4297 18.7578C46.3255 18.5729 46.181 18.4284 45.9961 18.3242C45.8138 18.2174 45.6016 18.1641 45.3594 18.1641C45.1068 18.1641 44.8828 18.2227 44.6875 18.3398C44.4948 18.4544 44.3438 18.6094 44.2344 18.8047C44.125 18.9974 44.069 19.2122 44.0664 19.4492V20.4297C44.0664 20.7266 44.1211 20.9831 44.2305 21.1992C44.3424 21.4154 44.5 21.582 44.7031 21.6992C44.9063 21.8164 45.1471 21.875 45.4258 21.875C45.6107 21.875 45.7799 21.849 45.9336 21.7969C46.0872 21.7448 46.2188 21.6667 46.3281 21.5625C46.4375 21.4583 46.5208 21.3307 46.5781 21.1797L48.1172 21.2812C48.0391 21.651 47.8789 21.974 47.6367 22.25C47.3971 22.5234 47.0872 22.737 46.707 22.8906C46.3294 23.0417 45.8932 23.1172 45.3984 23.1172ZM54.2305 18.7109L52.707 18.8047C52.681 18.6745 52.625 18.5573 52.5391 18.4531C52.4531 18.3464 52.3398 18.2617 52.1992 18.1992C52.0612 18.1341 51.8958 18.1016 51.7031 18.1016C51.4453 18.1016 51.2279 18.1562 51.0508 18.2656C50.8737 18.3724 50.7852 18.5156 50.7852 18.6953C50.7852 18.8385 50.8424 18.9596 50.957 19.0586C51.0716 19.1576 51.2682 19.237 51.5469 19.2969L52.6328 19.5156C53.2161 19.6354 53.651 19.8281 53.9375 20.0937C54.224 20.3594 54.3672 20.7083 54.3672 21.1406C54.3672 21.5339 54.2513 21.8789 54.0195 22.1758C53.7904 22.4727 53.4753 22.7044 53.0742 22.8711C52.6758 23.0352 52.2161 23.1172 51.6953 23.1172C50.901 23.1172 50.2682 22.9518 49.7969 22.6211C49.3281 22.2878 49.0534 21.8346 48.9727 21.2617L50.6094 21.1758C50.6589 21.418 50.7786 21.6029 50.9688 21.7305C51.1589 21.8555 51.4023 21.918 51.6992 21.918C51.9909 21.918 52.2253 21.862 52.4023 21.75C52.582 21.6354 52.6732 21.4883 52.6758 21.3086C52.6732 21.1576 52.6094 21.0339 52.4844 20.9375C52.3594 20.8385 52.1667 20.763 51.9063 20.7109L50.8672 20.5039C50.2813 20.3867 49.8451 20.1836 49.5586 19.8945C49.2747 19.6055 49.1328 19.237 49.1328 18.7891C49.1328 18.4036 49.237 18.0716 49.4453 17.793C49.6563 17.5143 49.9518 17.2995 50.332 17.1484C50.7148 16.9974 51.1628 16.9219 51.6758 16.9219C52.4336 16.9219 53.0299 17.082 53.4648 17.4023C53.9023 17.7227 54.1576 18.1589 54.2305 18.7109ZM58.6064 17V18.25H54.9932V17H58.6064ZM55.8135 15.5625H57.4775V21.1562C57.4775 21.3099 57.501 21.4297 57.5479 21.5156C57.5947 21.599 57.6598 21.6576 57.7432 21.6914C57.8291 21.7253 57.9281 21.7422 58.04 21.7422C58.1182 21.7422 58.1963 21.7357 58.2744 21.7227C58.3525 21.707 58.4124 21.6953 58.4541 21.6875L58.7158 22.9258C58.6325 22.9518 58.5153 22.9818 58.3643 23.0156C58.2132 23.0521 58.0296 23.0742 57.8135 23.082C57.4124 23.0977 57.0609 23.0443 56.7588 22.9219C56.4593 22.7995 56.2262 22.6094 56.0596 22.3516C55.8929 22.0937 55.8109 21.7682 55.8135 21.375V15.5625ZM63.9473 23.1133C63.5645 23.1133 63.2233 23.0469 62.9238 22.9141C62.6243 22.7786 62.3874 22.5794 62.2129 22.3164C62.041 22.0508 61.9551 21.7201 61.9551 21.3242C61.9551 20.9909 62.0163 20.7109 62.1387 20.4844C62.2611 20.2578 62.4277 20.0755 62.6387 19.9375C62.8496 19.7995 63.0892 19.6953 63.3574 19.625C63.6283 19.5547 63.9121 19.5052 64.209 19.4766C64.5579 19.4401 64.8392 19.4062 65.0527 19.375C65.2663 19.3411 65.4212 19.2917 65.5176 19.2266C65.6139 19.1615 65.6621 19.0651 65.6621 18.9375V18.9141C65.6621 18.6667 65.584 18.4753 65.4277 18.3398C65.2741 18.2044 65.0553 18.1367 64.7715 18.1367C64.472 18.1367 64.2337 18.2031 64.0566 18.3359C63.8796 18.4661 63.7624 18.6302 63.7051 18.8281L62.166 18.7031C62.2441 18.3385 62.3978 18.0234 62.627 17.7578C62.8561 17.4896 63.1517 17.2839 63.5137 17.1406C63.8783 16.9948 64.3001 16.9219 64.7793 16.9219C65.1126 16.9219 65.4316 16.9609 65.7363 17.0391C66.0436 17.1172 66.3158 17.2383 66.5527 17.4023C66.7923 17.5664 66.9811 17.7773 67.1191 18.0352C67.2572 18.2904 67.3262 18.5964 67.3262 18.9531V23H65.748V22.168H65.7012C65.6048 22.3555 65.4759 22.5208 65.3145 22.6641C65.153 22.8047 64.959 22.9154 64.7324 22.9961C64.5059 23.0742 64.2441 23.1133 63.9473 23.1133ZM64.4238 21.9648C64.6686 21.9648 64.8848 21.9167 65.0723 21.8203C65.2598 21.7214 65.4069 21.5885 65.5137 21.4219C65.6204 21.2552 65.6738 21.0664 65.6738 20.8555V20.2188C65.6217 20.2526 65.5501 20.2839 65.459 20.3125C65.3704 20.3385 65.2702 20.3633 65.1582 20.3867C65.0462 20.4076 64.9342 20.4271 64.8223 20.4453C64.7103 20.4609 64.6087 20.4753 64.5176 20.4883C64.3223 20.5169 64.1517 20.5625 64.0059 20.625C63.86 20.6875 63.7467 20.7721 63.666 20.8789C63.5853 20.9831 63.5449 21.1133 63.5449 21.2695C63.5449 21.4961 63.627 21.6693 63.791 21.7891C63.9577 21.9062 64.1686 21.9648 64.4238 21.9648ZM71.3281 23.1172C70.7135 23.1172 70.1849 22.987 69.7422 22.7266C69.3021 22.4635 68.9635 22.099 68.7266 21.6328C68.4922 21.1667 68.375 20.6302 68.375 20.0234C68.375 19.4089 68.4935 18.8698 68.7305 18.4062C68.9701 17.9401 69.3099 17.5768 69.75 17.3164C70.1901 17.0534 70.7135 16.9219 71.3203 16.9219C71.8438 16.9219 72.3021 17.0169 72.6953 17.207C73.0885 17.3971 73.3997 17.6641 73.6289 18.0078C73.8581 18.3516 73.9844 18.7552 74.0078 19.2188H72.4375C72.3932 18.9193 72.276 18.6784 72.0859 18.4961C71.8984 18.3112 71.6523 18.2187 71.3477 18.2187C71.0898 18.2187 70.8646 18.2891 70.6719 18.4297C70.4818 18.5677 70.3333 18.7695 70.2266 19.0352C70.1198 19.3008 70.0664 19.6224 70.0664 20C70.0664 20.3828 70.1185 20.7083 70.2227 20.9766C70.3294 21.2448 70.4792 21.4492 70.6719 21.5898C70.8646 21.7305 71.0898 21.8008 71.3477 21.8008C71.5378 21.8008 71.7083 21.7617 71.8594 21.6836C72.013 21.6055 72.1393 21.4922 72.2383 21.3437C72.3398 21.1927 72.4063 21.0117 72.4375 20.8008H74.0078C73.9818 21.2591 73.8568 21.6628 73.6328 22.0117C73.4115 22.3581 73.1055 22.6289 72.7148 22.8242C72.3242 23.0195 71.862 23.1172 71.3281 23.1172ZM77.7842 23.1172C77.1696 23.1172 76.641 22.987 76.1982 22.7266C75.7581 22.4635 75.4196 22.099 75.1826 21.6328C74.9482 21.1667 74.8311 20.6302 74.8311 20.0234C74.8311 19.4089 74.9495 18.8698 75.1865 18.4062C75.4261 17.9401 75.766 17.5768 76.2061 17.3164C76.6462 17.0534 77.1696 16.9219 77.7764 16.9219C78.2998 16.9219 78.7581 17.0169 79.1514 17.207C79.5446 17.3971 79.8558 17.6641 80.085 18.0078C80.3141 18.3516 80.4404 18.7552 80.4639 19.2188H78.8936C78.8493 18.9193 78.7321 18.6784 78.542 18.4961C78.3545 18.3112 78.1084 18.2187 77.8037 18.2187C77.5459 18.2187 77.3206 18.2891 77.1279 18.4297C76.9378 18.5677 76.7894 18.7695 76.6826 19.0352C76.5758 19.3008 76.5225 19.6224 76.5225 20C76.5225 20.3828 76.5745 20.7083 76.6787 20.9766C76.7855 21.2448 76.9352 21.4492 77.1279 21.5898C77.3206 21.7305 77.5459 21.8008 77.8037 21.8008C77.9938 21.8008 78.1644 21.7617 78.3154 21.6836C78.4691 21.6055 78.5954 21.4922 78.6943 21.3437C78.7959 21.1927 78.8623 21.0117 78.8936 20.8008H80.4639C80.4378 21.2591 80.3128 21.6628 80.0889 22.0117C79.8675 22.3581 79.5615 22.6289 79.1709 22.8242C78.7803 23.0195 78.318 23.1172 77.7842 23.1172ZM84.2637 23.1172C83.6465 23.1172 83.1152 22.9922 82.6699 22.7422C82.2272 22.4896 81.8861 22.1328 81.6465 21.6719C81.4069 21.2083 81.2871 20.6602 81.2871 20.0273C81.2871 19.4102 81.4069 18.8685 81.6465 18.4023C81.8861 17.9362 82.2233 17.5729 82.6582 17.3125C83.0957 17.0521 83.6087 16.9219 84.1973 16.9219C84.5931 16.9219 84.9616 16.9857 85.3027 17.1133C85.6465 17.2383 85.946 17.4271 86.2012 17.6797C86.459 17.9323 86.6595 18.25 86.8027 18.6328C86.946 19.013 87.0176 19.4583 87.0176 19.9687V20.4258H81.9512V19.3945H85.4512C85.4512 19.1549 85.3991 18.9427 85.2949 18.7578C85.1908 18.5729 85.0462 18.4284 84.8613 18.3242C84.679 18.2174 84.4668 18.1641 84.2246 18.1641C83.972 18.1641 83.748 18.2227 83.5527 18.3398C83.36 18.4544 83.209 18.6094 83.0996 18.8047C82.9902 18.9974 82.9342 19.2122 82.9316 19.4492V20.4297C82.9316 20.7266 82.9863 20.9831 83.0957 21.1992C83.2077 21.4154 83.3652 21.582 83.5684 21.6992C83.7715 21.8164 84.0124 21.875 84.291 21.875C84.4759 21.875 84.6452 21.849 84.7988 21.7969C84.9525 21.7448 85.084 21.6667 85.1934 21.5625C85.3027 21.4583 85.3861 21.3307 85.4434 21.1797L86.9824 21.2812C86.9043 21.651 86.7441 21.974 86.502 22.25C86.2624 22.5234 85.9525 22.737 85.5723 22.8906C85.1947 23.0417 84.7585 23.1172 84.2637 23.1172ZM93.0957 18.7109L91.5723 18.8047C91.5462 18.6745 91.4902 18.5573 91.4043 18.4531C91.3184 18.3464 91.2051 18.2617 91.0645 18.1992C90.9264 18.1341 90.7611 18.1016 90.5684 18.1016C90.3105 18.1016 90.0931 18.1562 89.916 18.2656C89.7389 18.3724 89.6504 18.5156 89.6504 18.6953C89.6504 18.8385 89.7077 18.9596 89.8223 19.0586C89.9368 19.1576 90.1335 19.237 90.4121 19.2969L91.498 19.5156C92.0814 19.6354 92.5163 19.8281 92.8027 20.0937C93.0892 20.3594 93.2324 20.7083 93.2324 21.1406C93.2324 21.5339 93.1165 21.8789 92.8848 22.1758C92.6556 22.4727 92.3405 22.7044 91.9395 22.8711C91.541 23.0352 91.0814 23.1172 90.5605 23.1172C89.7663 23.1172 89.1335 22.9518 88.6621 22.6211C88.1934 22.2878 87.9186 21.8346 87.8379 21.2617L89.4746 21.1758C89.5241 21.418 89.6439 21.6029 89.834 21.7305C90.0241 21.8555 90.2676 21.918 90.5645 21.918C90.8561 21.918 91.0905 21.862 91.2676 21.75C91.4473 21.6354 91.5384 21.4883 91.541 21.3086C91.5384 21.1576 91.4746 21.0339 91.3496 20.9375C91.2246 20.8385 91.0319 20.763 90.7715 20.7109L89.7324 20.5039C89.1465 20.3867 88.7103 20.1836 88.4238 19.8945C88.14 19.6055 87.998 19.237 87.998 18.7891C87.998 18.4036 88.1022 18.0716 88.3105 17.793C88.5215 17.5143 88.8171 17.2995 89.1973 17.1484C89.5801 16.9974 90.028 16.9219 90.541 16.9219C91.2988 16.9219 91.8952 17.082 92.3301 17.4023C92.7676 17.7227 93.0228 18.1589 93.0957 18.7109ZM99.2725 18.7109L97.749 18.8047C97.723 18.6745 97.667 18.5573 97.5811 18.4531C97.4951 18.3464 97.3818 18.2617 97.2412 18.1992C97.1032 18.1341 96.9378 18.1016 96.7451 18.1016C96.4873 18.1016 96.2699 18.1562 96.0928 18.2656C95.9157 18.3724 95.8271 18.5156 95.8271 18.6953C95.8271 18.8385 95.8844 18.9596 95.999 19.0586C96.1136 19.1576 96.3102 19.237 96.5889 19.2969L97.6748 19.5156C98.2581 19.6354 98.693 19.8281 98.9795 20.0937C99.266 20.3594 99.4092 20.7083 99.4092 21.1406C99.4092 21.5339 99.2933 21.8789 99.0615 22.1758C98.8324 22.4727 98.5173 22.7044 98.1162 22.8711C97.7178 23.0352 97.2581 23.1172 96.7373 23.1172C95.943 23.1172 95.3102 22.9518 94.8389 22.6211C94.3701 22.2878 94.0954 21.8346 94.0146 21.2617L95.6514 21.1758C95.7008 21.418 95.8206 21.6029 96.0107 21.7305C96.2008 21.8555 96.4443 21.918 96.7412 21.918C97.0329 21.918 97.2673 21.862 97.4443 21.75C97.624 21.6354 97.7152 21.4883 97.7178 21.3086C97.7152 21.1576 97.6514 21.0339 97.5264 20.9375C97.4014 20.8385 97.2087 20.763 96.9482 20.7109L95.9092 20.5039C95.3232 20.3867 94.887 20.1836 94.6006 19.8945C94.3167 19.6055 94.1748 19.237 94.1748 18.7891C94.1748 18.4036 94.279 18.0716 94.4873 17.793C94.6982 17.5143 94.9938 17.2995 95.374 17.1484C95.7568 16.9974 96.2048 16.9219 96.7178 16.9219C97.4756 16.9219 98.0719 17.082 98.5068 17.4023C98.9443 17.7227 99.1995 18.1589 99.2725 18.7109Z" fill="white"/>
<path d="M112.5 24.8333C111.693 24.8333 110.935 24.6801 110.225 24.3736C109.515 24.0672 108.898 23.6517 108.373 23.127C107.848 22.602 107.432 21.9847 107.126 21.275C106.82 20.5652 106.667 19.8069 106.667 19C106.667 18.193 106.82 17.4347 107.126 16.725C107.433 16.0152 107.848 15.3979 108.373 14.8729C108.898 14.3479 109.515 13.9323 110.225 13.6263C110.935 13.3202 111.693 13.167 112.5 13.1666C113.307 13.1666 114.065 13.3198 114.775 13.6263C115.485 13.9327 116.102 14.3483 116.627 14.8729C117.152 15.3979 117.568 16.0152 117.874 16.725C118.181 17.4347 118.334 18.193 118.333 19C118.333 19.8069 118.18 20.5652 117.874 21.275C117.567 21.9847 117.152 22.602 116.627 23.127C116.102 23.652 115.485 24.0678 114.775 24.3742C114.065 24.6807 113.307 24.8337 112.5 24.8333ZM112.5 23.6666C113.803 23.6666 114.906 23.2145 115.81 22.3104C116.715 21.4062 117.167 20.3027 117.167 19C117.167 18.3777 117.05 17.7798 116.817 17.2062C116.583 16.6326 116.248 16.127 115.81 15.6895L112.5 19V14.3333C111.197 14.3333 110.094 14.7854 109.19 15.6895C108.285 16.5937 107.833 17.6972 107.833 19C107.833 20.3027 108.285 21.4062 109.19 22.3104C110.094 23.2145 111.197 23.6666 112.5 23.6666Z" fill="white"/>
</svg>
