<svg width="101" height="19" viewBox="0 0 101 19" fill="none" xmlns="http://www.w3.org/2000/svg">
<path fill-rule="evenodd" clip-rule="evenodd" d="M0 3.95499C0 3.54711 0.462081 3.31084 0.792745 3.54965L8.20725 8.90457C8.53792 9.14339 9 8.90712 9 8.49923V3.95499C9 3.54711 9.46208 3.31084 9.79274 3.54965L17.2073 8.90457C17.5379 9.14339 18 8.90712 18 8.49923V3.95499C18 3.5471 18.4621 3.31084 18.7927 3.54965L26.7927 9.32743C26.9229 9.42143 27 9.57222 27 9.73277V17.4992C27 17.9071 26.5379 18.1434 26.2073 17.9046L18.7927 12.5496C18.4621 12.3108 18 12.5471 18 12.955V17.4992C18 17.9071 17.5379 18.1434 17.2073 17.9046L9.79275 12.5497C9.46208 12.3108 9 12.5471 9 12.955V17.4992C9 17.9071 8.53792 18.1434 8.20726 17.9046L0.207255 12.1268C0.0770985 12.0328 0 11.882 0 11.7215V3.95499Z" fill="white"/>
<path d="M31.7173 18V3.81818H34.9119V6.22798H35.0781C35.3736 5.41548 35.8629 4.78149 36.5462 4.32599C37.2294 3.86435 38.045 3.63352 38.9929 3.63352C39.9531 3.63352 40.7625 3.86742 41.4212 4.33523C42.0859 4.79687 42.5537 5.42779 42.8246 6.22798H42.9723C43.2862 5.4401 43.8156 4.81226 44.5604 4.34446C45.3113 3.8705 46.2008 3.63352 47.2287 3.63352C48.5336 3.63352 49.5985 4.04593 50.4233 4.87074C51.2481 5.69555 51.6605 6.89891 51.6605 8.48082V18H48.3089V8.99787C48.3089 8.11766 48.075 7.47443 47.6072 7.06818C47.1394 6.65578 46.567 6.44957 45.8899 6.44957C45.0836 6.44957 44.4527 6.70194 43.9972 7.20668C43.5478 7.70526 43.3232 8.35464 43.3232 9.15483V18H40.0455V8.85938C40.0455 8.12689 39.8239 7.54214 39.3807 7.10511C38.9437 6.66809 38.3712 6.44957 37.6634 6.44957C37.1832 6.44957 36.7462 6.57268 36.3523 6.81889C35.9583 7.05895 35.6444 7.40057 35.4105 7.84375C35.1766 8.28078 35.0597 8.79167 35.0597 9.37642V18H31.7173ZM61.2374 18.277C59.8525 18.277 58.6522 17.9723 57.6365 17.3629C56.6209 16.7536 55.833 15.901 55.2729 14.8054C54.7189 13.7098 54.4419 12.4295 54.4419 10.9645C54.4419 9.49953 54.7189 8.21615 55.2729 7.11435C55.833 6.01255 56.6209 5.15696 57.6365 4.54759C58.6522 3.93821 59.8525 3.63352 61.2374 3.63352C62.6223 3.63352 63.8226 3.93821 64.8382 4.54759C65.8539 5.15696 66.6387 6.01255 67.1926 7.11435C67.7528 8.21615 68.0328 9.49953 68.0328 10.9645C68.0328 12.4295 67.7528 13.7098 67.1926 14.8054C66.6387 15.901 65.8539 16.7536 64.8382 17.3629C63.8226 17.9723 62.6223 18.277 61.2374 18.277ZM61.2559 15.5994C62.0068 15.5994 62.6346 15.3932 63.1394 14.9808C63.6441 14.5623 64.0196 14.0021 64.2658 13.3004C64.5182 12.5987 64.6444 11.817 64.6444 10.9553C64.6444 10.0874 64.5182 9.30256 64.2658 8.60085C64.0196 7.89299 63.6441 7.32978 63.1394 6.91122C62.6346 6.49266 62.0068 6.28338 61.2559 6.28338C60.4864 6.28338 59.8463 6.49266 59.3354 6.91122C58.8307 7.32978 58.4521 7.89299 58.1998 8.60085C57.9535 9.30256 57.8304 10.0874 57.8304 10.9553C57.8304 11.817 57.9535 12.5987 58.1998 13.3004C58.4521 14.0021 58.8307 14.5623 59.3354 14.9808C59.8463 15.3932 60.4864 15.5994 61.2559 15.5994ZM74.212 9.69034V18H70.8697V3.81818H74.0643V6.22798H74.2305C74.5567 5.43395 75.0768 4.80303 75.7908 4.33523C76.511 3.86742 77.4004 3.63352 78.4592 3.63352C79.4379 3.63352 80.2904 3.8428 81.0167 4.26136C81.7492 4.67992 82.3155 5.28622 82.7156 6.08026C83.1218 6.87429 83.3219 7.83759 83.3157 8.97017V18H79.9734V9.48722C79.9734 8.5393 79.7272 7.79758 79.2347 7.26207C78.7485 6.72656 78.0745 6.45881 77.2127 6.45881C76.628 6.45881 76.1078 6.58807 75.6523 6.84659C75.203 7.09896 74.8491 7.4652 74.5906 7.94531C74.3382 8.42543 74.212 9.0071 74.212 9.69034ZM92.8995 18.277C91.5146 18.277 90.3143 17.9723 89.2987 17.3629C88.283 16.7536 87.4951 15.901 86.935 14.8054C86.381 13.7098 86.104 12.4295 86.104 10.9645C86.104 9.49953 86.381 8.21615 86.935 7.11435C87.4951 6.01255 88.283 5.15696 89.2987 4.54759C90.3143 3.93821 91.5146 3.63352 92.8995 3.63352C94.2844 3.63352 95.4847 3.93821 96.5004 4.54759C97.516 5.15696 98.3008 6.01255 98.8548 7.11435C99.4149 8.21615 99.695 9.49953 99.695 10.9645C99.695 12.4295 99.4149 13.7098 98.8548 14.8054C98.3008 15.901 97.516 16.7536 96.5004 17.3629C95.4847 17.9723 94.2844 18.277 92.8995 18.277ZM92.918 15.5994C93.6689 15.5994 94.2968 15.3932 94.8015 14.9808C95.3062 14.5623 95.6817 14.0021 95.9279 13.3004C96.1803 12.5987 96.3065 11.817 96.3065 10.9553C96.3065 10.0874 96.1803 9.30256 95.9279 8.60085C95.6817 7.89299 95.3062 7.32978 94.8015 6.91122C94.2968 6.49266 93.6689 6.28338 92.918 6.28338C92.1486 6.28338 91.5084 6.49266 90.9975 6.91122C90.4928 7.32978 90.1142 7.89299 89.8619 8.60085C89.6156 9.30256 89.4925 10.0874 89.4925 10.9553C89.4925 11.817 89.6156 12.5987 89.8619 13.3004C90.1142 14.0021 90.4928 14.5623 90.9975 14.9808C91.5084 15.3932 92.1486 15.5994 92.918 15.5994Z" fill="white"/>
</svg>
