<svg width="13" height="10" viewBox="0 0 13 10" fill="none" xmlns="http://www.w3.org/2000/svg">
<path d="M12.1658 1.25008C11.7488 1.43966 11.2992 1.56425 10.8333 1.62383C11.31 1.33675 11.6783 0.881748 11.8517 0.334665C11.4021 0.605498 10.9038 0.795081 10.3783 0.903415C9.95042 0.437581 9.34917 0.166748 8.66667 0.166748C7.39375 0.166748 6.35375 1.20675 6.35375 2.4905C6.35375 2.67466 6.37542 2.85341 6.41333 3.02133C4.485 2.92383 2.76792 1.99758 1.625 0.594665C1.42458 0.935915 1.31083 1.33675 1.31083 1.75925C1.31083 2.56633 1.71708 3.28133 2.34542 3.68758C1.96083 3.68758 1.60333 3.57925 1.28917 3.41675V3.433C1.28917 4.55966 2.09083 5.50216 3.1525 5.71341C2.81164 5.80669 2.4538 5.81967 2.10708 5.75133C2.2542 6.21309 2.54233 6.61713 2.93097 6.90667C3.3196 7.1962 3.7892 7.35666 4.27375 7.3655C3.45238 8.01573 2.43425 8.36721 1.38667 8.36216C1.2025 8.36216 1.01833 8.35133 0.834167 8.32966C1.86333 8.9905 3.0875 9.37508 4.39833 9.37508C8.66667 9.37508 11.0121 5.83258 11.0121 2.76133C11.0121 2.65841 11.0121 2.56091 11.0067 2.458C11.4617 2.133 11.8517 1.72133 12.1658 1.25008Z" fill="#B5B5B5"/>
</svg>
